<svg xmlns="http://www.w3.org/2000/svg" xmlns:xlink="http://www.w3.org/1999/xlink" preserveAspectRatio="xMidYMid meet" version="1.0" viewBox="0.0 -4.1 245.7 244.1" zoomAndPan="magnify" style="fill: rgb(0, 0, 0);" role="img" aria-label="Barbershop Salon Shaving Knife"><defs><clipPath id="__id522_sgqh7kdam"><path d="M 0 58 L 245.660156 58 L 245.660156 239.921875 L 0 239.921875 Z M 0 58"></path></clipPath></defs><g><g clip-path="url(#__id522_sgqh7kdam)" id="__id523_sgqh7kdam"><path d="M 0.566406 235.242188 C -3.109375 225.640625 12.203125 211.855469 14.195312 210.097656 C 30.523438 195.675781 45.703125 199.476562 70.582031 191.375 C 81.8125 187.71875 97.371094 180.867188 114.441406 166.804688 C 110.960938 161.28125 107.484375 155.757812 104.007812 150.234375 C 141.222656 119.71875 178.441406 89.199219 215.65625 58.683594 C 217.21875 58.839844 235.238281 60.941406 242.6875 75.9375 C 245.742188 82.085938 245.828125 88.003906 245.566406 91.464844 C 139.011719 183.777344 96.125 208.1875 79.933594 207.636719 C 78.460938 207.589844 64.75 206.910156 47.726562 211.089844 C 36.769531 213.777344 30.214844 215.386719 23.574219 220.863281 C 13.277344 229.355469 10.515625 240.972656 5.167969 239.84375 C 2.140625 239.203125 0.675781 235.523438 0.566406 235.242188" style="fill: rgb(135, 197, 215);"></path></g><g id="__id524_sgqh7kdam"><path d="M 66.792969 7.570312 C 64.613281 9.597656 62.230469 12.867188 60.949219 18.480469 C 41.585938 103.414062 16.578125 213.101562 50.425781 226.199219 C 56.394531 228.507812 61.996094 226.964844 63.117188 226.632812 C 89.296875 218.902344 71.359375 163.296875 99.917969 86.292969 C 109.179688 61.328125 127.335938 23.300781 114.730469 9.519531 C 113.472656 8.144531 111.296875 6.339844 108.882812 4.84375 C 94.429688 -4.128906 77.371094 1.589844 71.472656 4.453125 C 69.519531 5.398438 68.074219 6.382812 66.792969 7.570312" style="fill: rgb(33, 29, 29);"></path></g><g id="__id525_sgqh7kdam"><path d="M 62.707031 192.710938 C 66.253906 194.210938 63.195312 199.371094 59.675781 197.890625 C 57.304688 196.890625 54.214844 198.609375 53.175781 200.792969 C 52.027344 203.222656 53.726562 205.710938 55.976562 206.710938 C 61.035156 208.972656 64.855469 201.691406 60.734375 198.5 C 57.714844 196.171875 60.707031 190.960938 63.765625 193.320312 C 68.195312 196.730469 69.617188 202.699219 67.027344 207.761719 C 64.34375 213 58.035156 214.480469 52.945312 211.882812 C 47.804688 209.261719 45.144531 203.03125 47.996094 197.75 C 50.867188 192.449219 57.265625 190.421875 62.707031 192.710938 Z M 199.757812 71.6875 L 189.425781 80.136719 L 189.425781 130.339844 C 192.894531 127.578125 196.335938 124.785156 199.757812 121.964844 Z M 173.472656 93.179688 L 152.523438 110.308594 L 152.523438 157.453125 C 156.25 155.007812 159.933594 152.488281 163.566406 149.902344 C 166.894531 147.53125 170.191406 145.105469 173.472656 142.652344 Z M 137.359375 122.710938 L 137.359375 166.761719 C 141.019531 164.667969 144.632812 162.492188 148.195312 160.238281 L 148.195312 113.847656 L 137.359375 122.710938" style="fill: rgb(248, 252, 251);"></path></g></g></svg>